<svg viewBox="0 0 16.0039 16.0039" xmlns="http://www.w3.org/2000/svg" xmlns:xlink="http://www.w3.org/1999/xlink" width="16.003906" height="16.003906" fill="none" customFrame="#000000">
	<g id="add-line (1)">
		<path id="路径 42073" d="M16.0039 0L16.0039 16.0039L0 16.0039L0 0L16.0039 0Z" fill-rule="nonzero" stroke="rgb(112,112,112)" stroke-opacity="0" stroke-width="0.000000" />
		<path id="路径 42074" d="M7.33496 7.33496L7.33496 3.33398L8.66862 3.33398L8.66862 7.33496L12.6696 7.33496L12.6696 8.66862L8.66862 8.66862L8.66862 12.6696L7.33496 12.6696L7.33496 8.66862L3.33398 8.66862L3.33398 7.33496L7.33496 7.33496Z" fill="rgb(38,102,251)" fill-rule="nonzero" />
		<path id="路径 42074" d="M7.33496 3.33398L8.66862 3.33398L8.66862 7.33496L12.6696 7.33496L12.6696 8.66862L8.66862 8.66862L8.66862 12.6696L7.33496 12.6696L7.33496 8.66862L3.33398 8.66862L3.33398 7.33496L7.33496 7.33496L7.33496 3.33398Z" fill-rule="nonzero" stroke="rgb(112,112,112)" stroke-opacity="0" stroke-width="1.000000" />
	</g>
</svg>
