<svg viewBox="0 0 18 18" xmlns="http://www.w3.org/2000/svg" xmlns:xlink="http://www.w3.org/1999/xlink" width="18.000000" height="18.000000" fill="none" customFrame="#000000">
	<g id="delete-bin-line (1)">
		<path id="路径 42054" d="M18 0L18 18L0 18L0 0L18 0Z" fill-rule="nonzero" stroke="rgb(112,112,112)" stroke-opacity="0" stroke-width="0.000000" />
		<path id="路径 42055" d="M12.5 4.8L16 4.8L16 6.2L14.6 6.2L14.6 15.3C14.6 15.6866 14.2866 16 13.9 16L4.1 16C3.7134 16 3.4 15.6866 3.4 15.3L3.4 6.2L2 6.2L2 4.8L5.5 4.8L5.5 2.7C5.5 2.3134 5.8134 2 6.2 2L11.8 2C12.1866 2 12.5 2.3134 12.5 2.7L12.5 4.8ZM13.2 6.2L4.8 6.2L4.8 14.6L13.2 14.6L13.2 6.2ZM6.9 8.3L8.3 8.3L8.3 12.5L6.9 12.5L6.9 8.3ZM9.7 8.3L11.1 8.3L11.1 12.5L9.7 12.5L9.7 8.3ZM6.9 3.4L6.9 4.8L11.1 4.8L11.1 3.4L6.9 3.4Z" fill="rgb(0,0,0)" fill-opacity="0.447058827" fill-rule="nonzero" />
		<path id="路径 42055" d="M16 4.8L16 6.2L14.6 6.2L14.6 15.3C14.6 15.6866 14.2866 16 13.9 16L4.1 16C3.7134 16 3.4 15.6866 3.4 15.3L3.4 6.2L2 6.2L2 4.8L5.5 4.8L5.5 2.7C5.5 2.3134 5.8134 2 6.2 2L11.8 2C12.1866 2 12.5 2.3134 12.5 2.7L12.5 4.8L16 4.8ZM4.8 6.2L4.8 14.6L13.2 14.6L13.2 6.2L4.8 6.2ZM8.3 8.3L8.3 12.5L6.9 12.5L6.9 8.3L8.3 8.3ZM11.1 8.3L11.1 12.5L9.7 12.5L9.7 8.3L11.1 8.3ZM6.9 4.8L11.1 4.8L11.1 3.4L6.9 3.4L6.9 4.8Z" fill-rule="nonzero" stroke="rgb(112,112,112)" stroke-opacity="0" stroke-width="1.000000" />
	</g>
</svg>
