<svg viewBox="0 0 18 18" xmlns="http://www.w3.org/2000/svg" xmlns:xlink="http://www.w3.org/1999/xlink" width="18.000000" height="18.000000" fill="none" customFrame="#000000">
	<g id="edit-box-line (1)">
		<path id="路径 42056" d="M18 0L18 18L0 18L0 0L18 0Z" fill-rule="nonzero" stroke="rgb(112,112,112)" stroke-opacity="0" stroke-width="0.000000" />
		<path id="路径 42057" d="M12.3899 2.71159L11.0248 4.07665L4.36506 4.07665L4.36506 13.6321L13.9205 13.6321L13.9205 6.97239L15.2856 5.60733L15.2856 14.3146C15.2856 14.6916 14.98 14.9972 14.603 14.9972L3.68253 14.9972C3.30558 14.9972 3 14.6916 3 14.3146L3 3.39412C3 3.01717 3.30558 2.71159 3.68253 2.71159L12.3899 2.71159ZM14.9343 2.09766L15.8995 3.0629L9.6254 9.337L8.66187 9.33871L8.66016 8.37177L14.9343 2.09766Z" fill="rgb(0,0,0)" fill-opacity="0.454901963" fill-rule="nonzero" />
		<path id="路径 42057" d="M11.0248 4.07665L4.36506 4.07665L4.36506 13.6321L13.9205 13.6321L13.9205 6.97239L15.2856 5.60733L15.2856 14.3146C15.2856 14.6916 14.98 14.9972 14.603 14.9972L3.68253 14.9972C3.30558 14.9972 3 14.6916 3 14.3146L3 3.39412C3 3.01717 3.30558 2.71159 3.68253 2.71159L12.3899 2.71159L11.0248 4.07665ZM15.8995 3.0629L9.6254 9.337L8.66187 9.33871L8.66016 8.37177L14.9343 2.09766L15.8995 3.0629Z" fill-rule="nonzero" stroke="rgb(112,112,112)" stroke-opacity="0" stroke-width="1.000000" />
	</g>
</svg>
