<svg viewBox="0 0 18 18" xmlns="http://www.w3.org/2000/svg" xmlns:xlink="http://www.w3.org/1999/xlink" width="18.000000" height="18.000000" fill="none" customFrame="#000000">
	<g id="git-repository-commits-line">
		<path id="路径 42060" d="M18 0L18 18L0 18L0 0L18 0Z" fill-rule="nonzero" stroke="rgb(112,112,112)" stroke-opacity="0" stroke-width="0.000000" />
		<path id="路径 42061" d="M13 12L13 10.5714L13.6667 10.5714L13.6667 3.42857L5 3.42857L5 10.5967C5.10887 10.5801 5.22016 10.5714 5.33333 10.5714L6.33333 10.5714L6.33333 12L5.33333 12C4.78105 12 4.33333 12.4797 4.33333 13.0714C4.33333 13.6631 4.78105 14.1429 5.33333 14.1429L7.66667 14.1429L7.66667 15.5714L5.33333 15.5714C4.04467 15.5714 3 14.4521 3 13.0714L3 4.14286C3 2.95939 3.89543 2 5 2L14.3333 2C14.7015 2 15 2.3198 15 2.71429L15 14.8571C15 15.2516 14.7015 15.5714 14.3333 15.5714L11.6667 15.5714L11.6667 14.1429L13.6667 14.1429L13.6667 12L13 12ZM5.66667 4.14286L7 4.14286L7 5.57143L5.66667 5.57143L5.66667 4.14286ZM5.66667 6.28571L7 6.28571L7 7.71429L5.66667 7.71429L5.66667 6.28571ZM10.3333 12.7143L10.3333 17L9 17L9 12.7143L7 12.7143L9.66667 9.14286L12.3333 12.7143L10.3333 12.7143Z" fill="rgb(19,90,251)" fill-rule="nonzero" />
		<path id="路径 42061" d="M13 10.5714L13.6667 10.5714L13.6667 3.42857L5 3.42857L5 10.5967C5.10887 10.5801 5.22016 10.5714 5.33333 10.5714L6.33333 10.5714L6.33333 12L5.33333 12C4.78105 12 4.33333 12.4797 4.33333 13.0714C4.33333 13.6631 4.78105 14.1429 5.33333 14.1429L7.66667 14.1429L7.66667 15.5714L5.33333 15.5714C4.04467 15.5714 3 14.4521 3 13.0714L3 4.14286C3 2.95939 3.89543 2 5 2L14.3333 2C14.7015 2 15 2.3198 15 2.71429L15 14.8571C15 15.2516 14.7015 15.5714 14.3333 15.5714L11.6667 15.5714L11.6667 14.1429L13.6667 14.1429L13.6667 12L13 12L13 10.5714ZM7 4.14286L7 5.57143L5.66667 5.57143L5.66667 4.14286L7 4.14286ZM7 6.28571L7 7.71429L5.66667 7.71429L5.66667 6.28571L7 6.28571ZM10.3333 17L9 17L9 12.7143L7 12.7143L9.66667 9.14286L12.3333 12.7143L10.3333 12.7143L10.3333 17Z" fill-rule="nonzero" stroke="rgb(112,112,112)" stroke-opacity="0" stroke-width="1.000000" />
	</g>
</svg>
