<svg viewBox="0 0 18 18" xmlns="http://www.w3.org/2000/svg" xmlns:xlink="http://www.w3.org/1999/xlink" width="18.000000" height="18.000000" fill="none" customFrame="#000000">
	<g id="more-line">
		<path id="路径 42062" d="M18 0L18 18L0 18L0 0L18 0Z" fill-rule="nonzero" stroke="rgb(112,112,112)" stroke-opacity="0" stroke-width="0.000000" />
		<path id="路径 42063" d="M3.3699 7.87891C2.7506 7.87891 2.2439 8.3838 2.2439 9.00089C2.2439 9.61797 2.7506 10.1229 3.3699 10.1229C3.98921 10.1229 4.49591 9.61797 4.49591 9.00089C4.49591 8.3838 3.98921 7.87891 3.3699 7.87891ZM14.63 7.87891C14.0107 7.87891 13.504 8.3838 13.504 9.00089C13.504 9.61797 14.0107 10.1229 14.63 10.1229C15.2493 10.1229 15.756 9.61797 15.756 9.00089C15.756 8.3838 15.2493 7.87891 14.63 7.87891ZM8.99994 7.87891C8.38064 7.87891 7.87393 8.3838 7.87393 9.00089C7.87393 9.61797 8.38064 10.1229 8.99994 10.1229C9.61924 10.1229 10.1259 9.61797 10.1259 9.00089C10.1259 8.3838 9.61924 7.87891 8.99994 7.87891Z" fill="rgb(0,0,0)" fill-opacity="0.454901963" fill-rule="nonzero" />
		<path id="路径 42063" d="M2.2439 9.00089C2.2439 9.61797 2.7506 10.1229 3.3699 10.1229C3.98921 10.1229 4.49591 9.61797 4.49591 9.00089C4.49591 8.3838 3.98921 7.87891 3.3699 7.87891C2.7506 7.87891 2.2439 8.3838 2.2439 9.00089ZM13.504 9.00089C13.504 9.61797 14.0107 10.1229 14.63 10.1229C15.2493 10.1229 15.756 9.61797 15.756 9.00089C15.756 8.3838 15.2493 7.87891 14.63 7.87891C14.0107 7.87891 13.504 8.3838 13.504 9.00089ZM7.87393 9.00089C7.87393 9.61797 8.38064 10.1229 8.99994 10.1229C9.61924 10.1229 10.1259 9.61797 10.1259 9.00089C10.1259 8.3838 9.61924 7.87891 8.99994 7.87891C8.38064 7.87891 7.87393 8.3838 7.87393 9.00089Z" fill-rule="nonzero" stroke="rgb(112,112,112)" stroke-opacity="0" stroke-width="1.000000" />
	</g>
</svg>
