<svg viewBox="0 0 18 18" xmlns="http://www.w3.org/2000/svg" xmlns:xlink="http://www.w3.org/1999/xlink" width="18.000000" height="18.000000" fill="none" customFrame="#000000">
	<g id="play-circle-line (1)">
		<path id="路径 42064" d="M18 0L18 18L0 18L0 0L18 0Z" fill-rule="nonzero" stroke="rgb(112,112,112)" stroke-opacity="0" stroke-width="0.000000" />
		<path id="路径 42065" d="M9 16C5.13401 16 2 12.866 2 9C2 5.13401 5.13401 2 9 2C12.866 2 16 5.13401 16 9C16 12.866 12.866 16 9 16ZM9 14.6C12.0928 14.6 14.6 12.0928 14.6 9C14.6 5.9072 12.0928 3.4 9 3.4C5.9072 3.4 3.4 5.9072 3.4 9C3.4 12.0928 5.9072 14.6 9 14.6ZM8.03533 6.49021L11.4506 8.76704C11.5792 8.85279 11.614 9.02667 11.5282 9.15533C11.5077 9.18606 11.4813 9.21245 11.4506 9.23296L8.03533 11.5098C7.90667 11.5956 7.73279 11.5608 7.64704 11.4322C7.61638 11.3862 7.6 11.3321 7.6 11.2768L7.6 6.72319C7.6 6.56854 7.72537 6.44319 7.88 6.44319C7.9353 6.44319 7.98934 6.45955 8.03533 6.49021Z" fill="rgb(19,90,251)" fill-rule="nonzero" />
		<path id="路径 42065" d="M2 9C2 5.13401 5.13401 2 9 2C12.866 2 16 5.13401 16 9C16 12.866 12.866 16 9 16C5.13401 16 2 12.866 2 9ZM14.6 9C14.6 5.9072 12.0928 3.4 9 3.4C5.9072 3.4 3.4 5.9072 3.4 9C3.4 12.0928 5.9072 14.6 9 14.6C12.0928 14.6 14.6 12.0928 14.6 9ZM11.4506 8.76704C11.5792 8.85279 11.614 9.02667 11.5282 9.15533C11.5077 9.18606 11.4813 9.21245 11.4506 9.23296L8.03533 11.5098C7.90667 11.5956 7.73279 11.5608 7.64704 11.4322C7.61638 11.3862 7.6 11.3321 7.6 11.2768L7.6 6.72319C7.6 6.56854 7.72537 6.44319 7.88 6.44319C7.9353 6.44319 7.98934 6.45955 8.03533 6.49021L11.4506 8.76704Z" fill-rule="nonzero" stroke="rgb(112,112,112)" stroke-opacity="0" stroke-width="1.000000" />
	</g>
</svg>
