<svg viewBox="0 0 18 18" xmlns="http://www.w3.org/2000/svg" xmlns:xlink="http://www.w3.org/1999/xlink" width="18.000000" height="18.000000" fill="none" customFrame="#000000">
	<g id="prohibited-line">
		<path id="路径 42066" d="M18 0L18 18L0 18L0 0L18 0Z" fill-rule="nonzero" stroke="rgb(112,112,112)" stroke-opacity="0" stroke-width="0.000000" />
		<path id="路径 42067" d="M5.56601 4.57606L13.4239 12.434C14.1615 11.4854 14.6 10.2944 14.6 9C14.6 5.9072 12.0928 3.4 9 3.4C7.70563 3.4 6.51457 3.83851 5.56601 4.57606ZM12.434 13.4239L4.57606 5.56601C3.83851 6.51457 3.4 7.70563 3.4 9C3.4 12.0928 5.9072 14.6 9 14.6C10.2944 14.6 11.4854 14.1615 12.434 13.4239ZM4.05025 4.05025C5.31624 2.78427 7.06719 2 9 2C12.866 2 16 5.13401 16 9C16 10.9328 15.2157 12.6838 13.9498 13.9498C12.6838 15.2157 10.9328 16 9 16C5.13401 16 2 12.866 2 9C2 7.06719 2.78427 5.31624 4.05025 4.05025Z" fill="rgb(255,196,63)" fill-rule="nonzero" />
		<path id="路径 42067" d="M13.4239 12.434C14.1615 11.4854 14.6 10.2944 14.6 9C14.6 5.9072 12.0928 3.4 9 3.4C7.70563 3.4 6.51457 3.83851 5.56601 4.57606L13.4239 12.434ZM4.57606 5.56601C3.83851 6.51457 3.4 7.70563 3.4 9C3.4 12.0928 5.9072 14.6 9 14.6C10.2944 14.6 11.4854 14.1615 12.434 13.4239L4.57606 5.56601ZM9 2C12.866 2 16 5.13401 16 9C16 10.9328 15.2157 12.6838 13.9498 13.9498C12.6838 15.2157 10.9328 16 9 16C5.13401 16 2 12.866 2 9C2 7.06719 2.78427 5.31624 4.05025 4.05025C5.31624 2.78427 7.06719 2 9 2Z" fill-rule="nonzero" stroke="rgb(112,112,112)" stroke-opacity="0" stroke-width="1.000000" />
	</g>
</svg>
