<svg viewBox="0 0 18 18" xmlns="http://www.w3.org/2000/svg" xmlns:xlink="http://www.w3.org/1999/xlink" width="18.000000" height="18.000000" fill="none" customFrame="#000000">
	<g id="signal-tower-line">
		<path id="路径 42068" d="M18 0L18 18L0 18L0 0L18 0Z" fill-rule="nonzero" stroke="rgb(112,112,112)" stroke-opacity="0" stroke-width="0.000000" transform="matrix(-1,1.22465e-16,-1.22465e-16,-1,18,18)" />
		<path id="路径 42069" d="M2.8814 12.6608L3.59156 11.4436C2.25897 10.4199 1.4 8.81027 1.4 7C1.4 3.9072 3.9072 1.4 7 1.4C10.0928 1.4 12.6 3.9072 12.6 7C12.6 8.81027 11.741 10.4199 10.4084 11.4436L11.1186 12.6608C12.865 11.3879 14 9.32652 14 7C14 3.134 10.866 0 7 0C3.134 0 0 3.134 0 7C0 9.32652 1.13496 11.3879 2.8814 12.6608ZM6.3 7.7L7.7 7.7L7.7 14L6.3 14L6.3 7.7Z" fill="rgb(53,191,83)" fill-rule="nonzero" transform="matrix(-1,1.22465e-16,-1.22465e-16,-1,16,16)" />
		<path id="路径 42069" d="M3.59156 11.4436C2.25897 10.4199 1.4 8.81027 1.4 7C1.4 3.9072 3.9072 1.4 7 1.4C10.0928 1.4 12.6 3.9072 12.6 7C12.6 8.81027 11.741 10.4199 10.4084 11.4436L11.1186 12.6608C12.865 11.3879 14 9.32652 14 7C14 3.134 10.866 0 7 0C3.134 0 0 3.134 0 7C0 9.32652 1.13496 11.3879 2.8814 12.6608L3.59156 11.4436ZM7.7 7.7L7.7 14L6.3 14L6.3 7.7L7.7 7.7Z" fill-rule="nonzero" stroke="rgb(112,112,112)" stroke-opacity="0" stroke-width="1.000000" transform="matrix(-1,1.22465e-16,-1.22465e-16,-1,16,16)" />
	</g>
</svg>
