<svg xmlns="http://www.w3.org/2000/svg" xmlns:xlink="http://www.w3.org/1999/xlink" width="30" height="30" viewBox="0 0 30 30">
  <defs>
    <linearGradient id="linear-gradient" x1="0.5" x2="0.5" y2="1" gradientUnits="objectBoundingBox">
      <stop offset="0" stop-color="#598bfd"/>
      <stop offset="1" stop-color="#2565fb"/>
    </linearGradient>
  </defs>
  <g id="组_25860" data-name="组 25860" transform="translate(15922 10210)">
    <g id="组_25858" data-name="组 25858" transform="translate(-15922 -10210)">
      <rect id="矩形_5069" data-name="矩形 5069" width="30" height="30" rx="4" fill="url(#linear-gradient)"/>
    </g>
    <g id="组_25859" data-name="组 25859" transform="translate(-15916 -10203)">
      <path id="路径_41976" data-name="路径 41976" d="M7.288,10.971,1.579,8.42a.911.911,0,0,0-1.093,0A1.023,1.023,0,0,0,0,9.271V15.83a1.239,1.239,0,0,0,.607.972l5.831,2.551a.446.446,0,0,0,.364.121.73.73,0,0,0,.486-.121.917.917,0,0,0,.486-.85V11.821A.691.691,0,0,0,7.288,10.971Zm8.139-5.588L9.353,2.711a2.733,2.733,0,0,0-1.7-.121L1.579,5.262a2.132,2.132,0,0,0-.486.607,1.021,1.021,0,0,0,.486,1.336l6.438,2.915c.121,0,.364.121.486.121a.73.73,0,0,0,.486-.121l6.438-2.915c.243-.121.486-.243.486-.486a1.021,1.021,0,0,0-.486-1.336Z" transform="translate(0 -2.51)" fill="#fff"/>
      <path id="路径_41977" data-name="路径 41977" d="M556.467,360.415v-6.559a1.022,1.022,0,0,0-.486-.85,1.341,1.341,0,0,0-.972,0l-5.831,2.551a.913.913,0,0,0-.607.85v6.559a1.022,1.022,0,0,0,.486.85.669.669,0,0,0,.607.243.73.73,0,0,0,.486-.121l5.831-2.551a1.5,1.5,0,0,0,.486-.972" transform="translate(-539.461 -347.095)" fill="#fff"/>
    </g>
  </g>
</svg>
