<svg xmlns="http://www.w3.org/2000/svg" width="14" height="14.001" viewBox="0 0 14 14.001">
  <g id="调用记录" data-name="调用记录" transform="translate(0 0.001)">
    <path d="M0 0H14V14H0Z" transform="translate(0 -0.001)" fill="#a6adb4" opacity="0.01"/>
    <path d="M2.25 1.25h5.15l2.35 2.35v2.05a4.35 4.35 0 0 0-1.15-.33V4.15H6.95V2.5h-4.7v9h3.32c.15.42.37.81.65 1.15H2.25A1.15 1.15 0 0 1 1.1 11.5V2.4a1.15 1.15 0 0 1 1.15-1.15Zm5.85.93V3h.82ZM3.1 5.15h4v1.1h-4Zm0 2.05h2.65v1.1H3.1Zm0 2.05h2.15v1.1H3.1Z" fill="#a6adb4"/>
    <path d="M9.45 6.2a3.4 3.4 0 1 1 0 6.8 3.4 3.4 0 0 1 0-6.8Zm0 1.1a2.3 2.3 0 1 0 0 4.6 2.3 2.3 0 0 0 0-4.6Zm-.55.55H10v1.48l1.18.7-.56.94-1.72-1.02Z" fill="#a6adb4"/>
  </g>
</svg>
