<svg xmlns="http://www.w3.org/2000/svg" width="13.758" height="13.758" viewBox="0 0 13.758 13.758">
  <path id="路径_22610" data-name="路径 22610" d="M68.172,71.3H66.086A2.092,2.092,0,0,0,64,73.387v2.086a2.092,2.092,0,0,0,2.086,2.086h2.086a2.092,2.092,0,0,0,2.086-2.086V73.387A2.092,2.092,0,0,0,68.172,71.3Zm1.043,4.172a1.046,1.046,0,0,1-1.043,1.043H66.086a1.046,1.046,0,0,1-1.043-1.043V73.387a1.046,1.046,0,0,1,1.043-1.043h2.086a1.046,1.046,0,0,1,1.043,1.043ZM75.473,64H73.387A2.092,2.092,0,0,0,71.3,66.086v2.086a2.092,2.092,0,0,0,2.086,2.086h2.086a2.092,2.092,0,0,0,2.086-2.086V66.086A2.092,2.092,0,0,0,75.473,64Zm1.043,4.172a1.046,1.046,0,0,1-1.043,1.043H73.387a1.046,1.046,0,0,1-1.043-1.043V66.086a1.046,1.046,0,0,1,1.043-1.043h2.086a1.046,1.046,0,0,1,1.043,1.043ZM75.473,71.3H73.387A2.092,2.092,0,0,0,71.3,73.387v2.086a2.092,2.092,0,0,0,2.086,2.086h2.086a2.092,2.092,0,0,0,2.086-2.086V73.387A2.092,2.092,0,0,0,75.473,71.3Zm1.043,4.172a1.046,1.046,0,0,1-1.043,1.043H73.387a1.046,1.046,0,0,1-1.043-1.043V73.387a1.046,1.046,0,0,1,1.043-1.043h2.086a1.046,1.046,0,0,1,1.043,1.043ZM68.172,64H66.086A2.092,2.092,0,0,0,64,66.086v2.086a2.092,2.092,0,0,0,2.086,2.086h2.086a2.092,2.092,0,0,0,2.086-2.086V66.086A2.092,2.092,0,0,0,68.172,64Zm1.043,4.172a1.046,1.046,0,0,1-1.043,1.043H66.086a1.046,1.046,0,0,1-1.043-1.043V66.086a1.046,1.046,0,0,1,1.043-1.043h2.086a1.046,1.046,0,0,1,1.043,1.043Z" transform="translate(-63.9 -63.9)" fill="#a6adb4" stroke="#a1a8b0" stroke-width="0.2"/>
</svg>
