<svg xmlns="http://www.w3.org/2000/svg" width="14" height="13.999" viewBox="0 0 14 13.999">
  <g id="组_23072" data-name="组 23072" transform="translate(-40.984 -41.025)">
    <path id="路径_22588" data-name="路径 22588" d="M353.327,578.627h-1.282v-2.563a1.282,1.282,0,1,0-2.563,0v2.563H348.2v-2.563a2.563,2.563,0,0,1,5.127,0Z" transform="translate(-302.779 -524.884)" fill="#fff"/>
    <path id="路径_22589" data-name="路径 22589" d="M51.529,55.024H44.452a1.785,1.785,0,0,1-1.281-.553,1.877,1.877,0,0,1-.517-1.3V48.781h-.59a1.079,1.079,0,0,1-1.008-.713,1.12,1.12,0,0,1,.265-1.195l0,0L47,41.423a1.417,1.417,0,0,1,1.969,0l-.843.878a.2.2,0,0,0-.282,0l-5.485,5.262h.905a.609.609,0,0,1,.609.609v5a.673.673,0,0,0,.18.461.55.55,0,0,0,.4.177h7.077a.551.551,0,0,0,.4-.177.673.673,0,0,0,.18-.461v-5a.609.609,0,0,1,.609-.609h.892L48.128,42.3l.843-.878,5.676,5.445,0,0a1.121,1.121,0,0,1,.265,1.195,1.094,1.094,0,0,1-1.008.713h-.578v4.389a1.874,1.874,0,0,1-.517,1.3,1.774,1.774,0,0,1-1.281.553Z" fill="#fff"/>
  </g>
</svg>
