<svg xmlns="http://www.w3.org/2000/svg" width="14" height="14.001" viewBox="0 0 14 14.001">
  <g id="模型审批" data-name="模型审批" transform="translate(0 0.001)">
    <path d="M0 0H14V14H0Z" transform="translate(0 -0.001)" fill="#a6adb4" opacity="0.01"/>
    <path fill-rule="evenodd" d="M5.15.85h3.7c.5 0 .92.35 1.02.82h1.08c.8 0 1.45.65 1.45 1.45v8.53c0 .8-.65 1.45-1.45 1.45h-7.9c-.8 0-1.45-.65-1.45-1.45V3.12c0-.8.65-1.45 1.45-1.45h1.08c.1-.47.52-.82 1.02-.82Zm0 1.15v.72h3.7V2Zm-2.1.82a.3.3 0 0 0-.3.3v8.53c0 .17.13.3.3.3h7.9a.3.3 0 0 0 .3-.3V3.12a.3.3 0 0 0-.3-.3H10v.48c0 .32-.26.58-.58.58H4.58A.58.58 0 0 1 4 3.3v-.48Z" fill="#a6adb4"/>
    <path d="m4.05 7.65 1.72 1.72 4.1-4.1.82.82-4.92 4.92-2.54-2.54Z" fill="#a6adb4"/>
  </g>
</svg>
