<svg xmlns="http://www.w3.org/2000/svg" width="12.717" height="14.225" viewBox="0 0 12.717 14.225">
  <path id="路径_22609" data-name="路径 22609" d="M83.86,10.641H81.8a.614.614,0,0,0,0,1.226h2.066a.614.614,0,0,0,0-1.226ZM81.8,7.993a.614.614,0,0,0,0,1.226h2.066a.614.614,0,0,0,0-1.226Zm-5.2,2.215h.389v.373a.648.648,0,0,0,1.281,0v-.373h.389a.654.654,0,0,0,.614-.286.594.594,0,0,0,0-.653.654.654,0,0,0-.614-.286h-.389V8.609a.648.648,0,0,0-1.281,0v.373H76.6a.614.614,0,0,0,0,1.226Zm1.146-6.448H82.7V5.473H77.745Zm-.637,2.947h6.263a.631.631,0,0,0,.637-.61V3.143a.631.631,0,0,0-.644-.616H77.108a.631.631,0,0,0-.644.616V6.1a.631.631,0,0,0,.644.6ZM85.3,13H75.155V1.233H85.3Zm.644-13H74.518a.631.631,0,0,0-.644.616V13.608a.631.631,0,0,0,.644.616H85.948a.631.631,0,0,0,.644-.616V.616A.631.631,0,0,0,85.948,0Z" transform="translate(-73.875)" fill="#a6adb4"/>
</svg>
