<svg xmlns="http://www.w3.org/2000/svg" width="14" height="14.001" viewBox="0 0 14 14.001">
  <g id="组_23071" data-name="组 23071" transform="translate(0 0.001)">
    <path id="路径_22591" data-name="路径 22591" d="M0,0H14V14H0Z" transform="translate(0 -0.001)" fill="#a6adb4" opacity="0.01"/>
    <path id="路径_22592" data-name="路径 22592" d="M144.432,136.533a1.947,1.947,0,0,0,2.485,2.485v.111a2.6,2.6,0,1,0,0,5.192v.111a1.947,1.947,0,0,0-2.485,2.485h-.111a2.6,2.6,0,1,0-5.192,0h-.111a1.947,1.947,0,0,0-2.485-2.485v-.111a2.6,2.6,0,1,0,0-5.192v-.111a1.947,1.947,0,0,0,2.485-2.485h.111a2.6,2.6,0,1,0,5.192,0ZM138.5,138.5a3.777,3.777,0,0,1,.951.827q-.06.063-.123.123a3.8,3.8,0,0,1-.828-.951Zm3.223,4.992a1.77,1.77,0,1,0-1.77-1.77A1.77,1.77,0,0,0,141.725,143.5Z" transform="translate(-134.725 -134.726)" fill="#a6adb4"/>
    <path id="路径_22593" data-name="路径 22593" d="M2.51,5.019A2.51,2.51,0,1,0,0,2.509a2.51,2.51,0,0,0,2.51,2.51Zm0-1.167A1.342,1.342,0,1,1,3.852,2.509,1.342,1.342,0,0,1,2.51,3.852Zm8.755,1.167a2.51,2.51,0,1,0-2.51-2.51,2.51,2.51,0,0,0,2.51,2.51Zm0-1.167a1.342,1.342,0,1,1,1.342-1.342,1.342,1.342,0,0,1-1.342,1.342ZM2.51,13.774A2.51,2.51,0,1,0,0,11.264a2.51,2.51,0,0,0,2.51,2.51Zm0-1.167a1.342,1.342,0,1,1,1.342-1.342A1.342,1.342,0,0,1,2.51,12.606Zm8.755,1.167a2.51,2.51,0,1,0-2.51-2.51,2.51,2.51,0,0,0,2.51,2.51Zm0-1.167a1.342,1.342,0,1,1,1.342-1.342A1.342,1.342,0,0,1,11.264,12.606Z" fill="#a6adb4"/>
  </g>
</svg>
