<svg xmlns="http://www.w3.org/2000/svg" width="14" height="14" viewBox="0 0 14 14">
  <path id="路径_22607" data-name="路径 22607" d="M9.08,3.7l.035.063L10.371,6.61h.812a.389.389,0,0,1,.383.319l.006.07a.389.389,0,0,1-.32.383l-.07.006H10.117a.389.389,0,0,1-.325-.175l-.031-.057L8.786,4.947,7.363,8.715a.389.389,0,0,1-.682.086l-.035-.063L6.03,7.388H5.455a.388.388,0,0,1-.311-.155l-.038-.063-.416-.847-.457.86a.389.389,0,0,1-.273.2l-.071.006H2.721a.389.389,0,0,1-.07-.772l.07-.006h.934L4.36,5.285a.389.389,0,0,1,.656-.049l.037.061L5.7,6.61h.584a.389.389,0,0,1,.322.171l.031.056.332.728L8.4,3.783A.389.389,0,0,1,9.08,3.7Zm1.809-2.379H3.111A1.789,1.789,0,0,0,1.326,2.988l0,.123V8.555A1.789,1.789,0,0,0,2.989,10.34l.122,0h7.778a1.789,1.789,0,0,0,1.785-1.666l0-.123V3.11a1.789,1.789,0,0,0-1.666-1.785Zm0-1.322A3.111,3.111,0,0,1,14,3.11V8.555a3.111,3.111,0,0,1-3.111,3.111H3.111A3.111,3.111,0,0,1,0,8.555V3.11A3.111,3.111,0,0,1,3.111,0Zm.894,12.678a.661.661,0,0,1,0,1.322H2.217a.661.661,0,1,1,0-1.322Z" transform="translate(0 0.001)" fill="#a6adb4"/>
</svg>
