<svg xmlns="http://www.w3.org/2000/svg" width="14" height="13.992" viewBox="0 0 14 13.992">
  <g id="组_23070" data-name="组 23070" transform="translate(-6.4)">
    <path id="路径_22605" data-name="路径 22605" d="M17.612,13.993a2.113,2.113,0,0,1-1.45-.592l-3.579-3.55,1.065-1.065.177.177.414-.414.651.651-.651.651,2.722,2.722a.913.913,0,0,0,1.242,0l.74-.74a.858.858,0,0,0,0-1.242L16.221,7.869l-.651.651-.651-.651.414-.414-.148-.207,1.065-1.065L19.8,9.762a2.053,2.053,0,0,1,0,2.9l-.74.74a1.988,1.988,0,0,1-1.45.592ZM10.867,6.8,9.684,5.65,8.116,4.822,6.4,2.633,9.033,0l2.189,1.716.828,1.6,1.242,1.213-.828.858-1.8-1.8.148-.118-.5-.976L9.122,1.6,8,2.722,8.885,3.9l.976.5L9.98,4.26,11.7,5.976Z" transform="translate(0)" fill="#a6adb4"/>
    <path id="路径_22606" data-name="路径 22606" d="M13.53,18.1a1.545,1.545,0,0,1-1.124-.473l-.74-.74a1.589,1.589,0,0,1,0-2.248l6.272-6.272a3.611,3.611,0,0,1,5.237-3.787l.71.385L21.814,7.04l.444.444,2.071-2.071.385.71a3.59,3.59,0,0,1-.651,4.231,3.646,3.646,0,0,1-3.136,1.006l-6.272,6.3a1.588,1.588,0,0,1-1.124.444ZM21.518,5.383a2.419,2.419,0,0,0-1.716.71,2.375,2.375,0,0,0-.621,2.337l.089.325L12.524,15.5a.411.411,0,0,0,0,.562l.74.74a.411.411,0,0,0,.562,0l6.745-6.745.325.089a2.425,2.425,0,0,0,2.337-.621,2.473,2.473,0,0,0,.71-2.012L22.287,9.17l-2.13-2.1,1.657-1.657a1.006,1.006,0,0,0-.3-.03Z" transform="translate(-4.734 -4.112)" fill="#a6adb4"/>
  </g>
</svg>
