<svg xmlns="http://www.w3.org/2000/svg" width="13.893" height="13.659" viewBox="0 0 13.893 13.659">
  <g id="组_23069" data-name="组 23069" transform="translate(-68.9 -71.1)">
    <path id="路径_22600" data-name="路径 22600" d="M70.089,80.505V72.648a.359.359,0,0,1,.359-.359h10.8a.36.36,0,0,1,.359.359v3.864h1.089V72.648A1.45,1.45,0,0,0,81.246,71.2h-10.8A1.45,1.45,0,0,0,69,72.648v7.858a1.45,1.45,0,0,0,1.448,1.448h3.494V80.865h-3.5A.359.359,0,0,1,70.089,80.505Zm-.533,2.037H73.94v1.089H69.555Z" transform="translate(0 0)" fill="#a6adb4" stroke="#a6adb4" stroke-width="0.2"/>
    <path id="路径_22601" data-name="路径 22601" d="M438.359,403.224l-.079-.233a4.185,4.185,0,0,0-.827-1.429l-.163-.185H436l-.648-1.123-.243-.048a4.269,4.269,0,0,0-1.65,0l-.243.048-.648,1.123H431.27l-.163.185a4.2,4.2,0,0,0-.827,1.429l-.079.233.648,1.123-.648,1.123.079.233a4.185,4.185,0,0,0,.827,1.429l.163.185h1.294l.648,1.123.243.048a4.2,4.2,0,0,0,.826.081,4.335,4.335,0,0,0,.826-.081l.243-.048.648-1.123h1.294l.163-.185a4.2,4.2,0,0,0,.827-1.429l.079-.233-.648-1.123Zm-1.194,2.351a3.147,3.147,0,0,1-.378.653h-1.418l-.709,1.228a3.217,3.217,0,0,1-.754,0l-.709-1.228h-1.418a3.106,3.106,0,0,1-.378-.653l.709-1.23-.709-1.23a3.146,3.146,0,0,1,.378-.653H433.2l.709-1.229a3.224,3.224,0,0,1,.754,0l.709,1.229h1.418a3.108,3.108,0,0,1,.378.653l-.709,1.23Z" transform="translate(-355.583 -323.81)" fill="#a6adb4"/>
    <path id="路径_22602" data-name="路径 22602" d="M583.131,560.2a1.731,1.731,0,1,0,1.731,1.731A1.732,1.732,0,0,0,583.131,560.2Zm0,2.375a.642.642,0,1,1,.642-.642A.642.642,0,0,1,583.131,562.575Z" transform="translate(-504.432 -481.396)" fill="#a6adb4"/>
  </g>
</svg>
