<svg xmlns="http://www.w3.org/2000/svg" width="16.154" height="15.604" viewBox="0 0 16.154 15.604">
  <g id="组_23046" data-name="组 23046" transform="translate(-66.925 -82.1)">
    <path id="路径_22424" data-name="路径 22424" d="M82.24,91.014a.838.838,0,0,1-.593-.245L75,84.125l-6.644,6.644a.839.839,0,0,1-1.187-1.187l7.237-7.237a.841.841,0,0,1,1.187,0l7.237,7.237a.838.838,0,0,1-.593,1.432Z" transform="translate(0 0)" />
    <path id="路径_22425" data-name="路径 22425" d="M148.905,434.773H136.938a.839.839,0,0,1-.838-.838V426.24a.838.838,0,1,1,1.677,0V433.1h10.29v-6.858a.838.838,0,1,1,1.677,0v7.695A.837.837,0,0,1,148.905,434.773Z" transform="translate(-67.92 -337.07)" />
    <path id="路径_22426" data-name="路径 22426" d="M367.316,564.842a.418.418,0,0,1-.419-.419v-5.285h-3.758v5.285a.419.419,0,0,1-.838,0v-5.7a.413.413,0,0,1,.123-.3.421.421,0,0,1,.3-.123h4.6a.418.418,0,0,1,.419.419v5.7A.421.421,0,0,1,367.316,564.842Z" transform="translate(-290.015 -467.558)" />
  </g>
</svg>
